<?xml version="1.0" encoding="UTF-8" standalone="no"?>
<svg
   xmlns:dc="http://purl.org/dc/elements/1.1/"
   xmlns:cc="http://creativecommons.org/ns#"
   xmlns:rdf="http://www.w3.org/1999/02/22-rdf-syntax-ns#"
   xmlns:svg="http://www.w3.org/2000/svg"
   xmlns="http://www.w3.org/2000/svg"
   xmlns:sodipodi="http://sodipodi.sourceforge.net/DTD/sodipodi-0.dtd"
   xmlns:inkscape="http://www.inkscape.org/namespaces/inkscape"
   height="512pt"
   viewBox="0 -68 512 512"
   width="512pt"
   version="1.1"
   id="svg32"
   sodipodi:docname="editor_icon1.svg"
   inkscape:version="0.92.4 (unknown)">
  <metadata
     id="metadata38">
    <rdf:RDF>
      <cc:Work
         rdf:about="">
        <dc:format>image/svg+xml</dc:format>
        <dc:type
           rdf:resource="http://purl.org/dc/dcmitype/StillImage" />
      </cc:Work>
    </rdf:RDF>
  </metadata>
  <defs
     id="defs36" />
  <sodipodi:namedview
     pagecolor="#ffffff"
     bordercolor="#666666"
     borderopacity="1"
     objecttolerance="10"
     gridtolerance="10"
     guidetolerance="10"
     inkscape:pageopacity="0"
     inkscape:pageshadow="2"
     inkscape:window-width="1853"
     inkscape:window-height="1025"
     id="namedview34"
     showgrid="false"
     inkscape:zoom="0.69140625"
     inkscape:cx="119.74414"
     inkscape:cy="243.57911"
     inkscape:window-x="67"
     inkscape:window-y="27"
     inkscape:window-maximized="1"
     inkscape:current-layer="svg32" />
  <path
     d="m 83.93698,21.275539 c -2.573219,-3.0822 -6.071272,-4.81124 -9.714035,-4.81124 -3.649053,0 -7.140819,1.72904 -9.720323,4.81124 L 9.527744,86.964004 c -2.5795027,3.074686 -4.026542,7.254449 -4.026542,11.607121 0,4.360175 1.4470393,8.532425 4.026542,11.614625 l 54.974878,65.68848 c 5.39179,6.22455 13.967069,6.13433 19.270783,-0.20299 5.297414,-6.32977 5.372906,-16.57622 0.163575,-23.01877 L 38.682425,98.571125 83.93698,44.49729 c 2.579508,-3.082192 4.02653,-7.254449 4.02653,-11.614627 0,-4.352676 -1.447022,-8.532439 -4.02653,-11.607124 z m 0,0"
     id="path4"
     inkscape:connector-curvature="0"
     style="stroke-width:1.76057541" />
  <path
     d="m 451.0003,21.275539 c -5.3918,-6.224542 -13.96708,-6.134332 -19.27078,0.195458 -5.29742,6.337303 -5.37293,16.58374 -0.16359,23.026293 l 45.25456,54.073819 -45.25456,54.081371 c -3.57354,4.12715 -5.00801,10.23139 -3.74972,15.97483 1.25831,5.7359 5.00803,10.22386 9.8147,11.72739 4.8067,1.50351 9.91535,-0.21051 13.36939,-4.48048 l 54.97488,-65.68847 c 2.57949,-3.0822 4.02654,-7.25443 4.02654,-11.614641 0,-4.352672 -1.44705,-8.532419 -4.02654,-11.607105 z m 0,0"
     id="path6"
     inkscape:connector-curvature="0"
     style="stroke-width:1.76057541" />
  <path
     d="M 362.84419,-65.650043 H 142.9384 c -15.17503,0.02255 -27.46858,14.711871 -27.48745,32.844234 V 229.95558 c 0.0188,18.13236 12.31242,32.82167 27.48745,32.84422 h 219.90579 c 7.83288,-0.0302 15.27571,-4.07451 20.44729,-11.10343 0.18245,-0.2556 0.35861,-0.49616 0.52219,-0.75927 4.18382,-5.84868 6.4928,-13.28354 6.51797,-20.98152 V -32.805809 c -0.0133,-18.132363 -12.31241,-32.821681 -27.48745,-32.844234 z m -74.30227,295.605623 -12.476,-27.3489 31.8034,-69.71037 44.26049,97.05927 z m 74.30227,-262.761389 0.0188,217.648489 -30.85967,-67.65806 c -4.81926,-10.55467 -14.07401,-17.1175 -24.13407,-17.1175 -10.06008,0 -19.31482,6.56283 -24.13409,17.1175 l -23.32875,51.13446 -38.3591,-84.053885 C 217.23433,73.725573 207.97957,67.170268 197.93209,67.170268 H 197.92 c -10.06006,0.0082 -19.30853,6.577854 -24.11521,17.132521 L 142.939,151.90823 V -32.805809 Z M 142.9384,220.506 197.93214,100.00698 257.22926,229.95558 H 142.9384 Z m 0,0"
     id="path8"
     inkscape:connector-curvature="0"
     style="stroke-width:1.76057541" />
  <path
     d="m 266.63502,82.152763 c 22.77511,0 41.2343,-22.056527 41.2343,-49.2701 0,-27.2060686 -18.45919,-49.262598 -41.2343,-49.262598 -22.76884,0 -41.22801,22.0565294 -41.22801,49.262598 0.0252,27.198546 18.46546,49.240028 41.22801,49.2701 z m 0,-65.688464 c 7.5938,0 13.74686,7.352177 13.74686,16.418364 0,9.073699 -6.15306,16.425868 -13.74686,16.425868 -7.58752,0 -13.74059,-7.352169 -13.74059,-16.425868 0.008,-9.066187 6.15307,-16.410846 13.74059,-16.418364 z m 0,0"
     id="path20"
     inkscape:connector-curvature="0"
     style="stroke-width:1.76057541" />
  <path
     d="m 171.1406,353.98635 c 0,-18.67534 -15.3237,-33.81165 -34.23022,-33.81165 -18.90129,0 -34.22498,15.13631 -34.22498,33.81165 0,18.67019 15.32369,33.8065 34.22498,33.8065 18.89608,-0.0207 34.20932,-15.14148 34.23022,-33.8065 z m -45.6368,0 c 0,-6.22684 5.1079,-11.27227 11.40658,-11.27227 6.30392,0 11.41182,5.04543 11.41182,11.27227 0,6.22168 -5.1079,11.26711 -11.41182,11.26711 -6.29347,-0.006 -11.40136,-5.04543 -11.40658,-11.26711 z m 0,0"
     id="path22"
     inkscape:connector-curvature="0"
     style="stroke-width:1.32883644" />
  <path
     d="m 308.05098,353.98635 c 0,-18.67534 -15.32369,-33.81165 -34.22499,-33.81165 -18.90652,0 -34.2302,15.13631 -34.2302,33.81165 0,18.67019 15.32368,33.8065 34.2302,33.8065 18.89608,-0.0207 34.2041,-15.14148 34.22499,-33.8065 z m -45.6368,0 c 0,-6.22684 5.1079,-11.27227 11.41181,-11.27227 6.2987,0 11.40659,5.04543 11.40659,11.27227 0,6.22168 -5.10789,11.26711 -11.40659,11.26711 -6.29869,-0.006 -11.40136,-5.04543 -11.41181,-11.26711 z m 0,0"
     id="path24"
     inkscape:connector-curvature="0"
     style="stroke-width:1.32883644" />
  <path
     d="m 444.96658,353.98635 c 0,-18.67534 -15.32368,-33.81165 -34.2302,-33.81165 -18.9013,0 -34.22499,15.13631 -34.22499,33.81165 0,18.67019 15.32369,33.8065 34.22499,33.8065 18.89608,-0.0207 34.20932,-15.14148 34.2302,-33.8065 z m -34.2302,11.26711 c -6.2987,0 -11.40659,-5.04543 -11.40659,-11.26711 0,-6.22684 5.10789,-11.27227 11.40659,-11.27227 6.30391,0 11.41181,5.04543 11.41181,11.27227 -0.011,6.22168 -5.11312,11.26195 -11.41181,11.26711 z m 0,0"
     id="path26"
     inkscape:connector-curvature="0"
     style="stroke-width:1.32883644" />
  <path
     d="m 216.77739,353.98635 c 0,-43.57236 -35.75527,-78.89042 -79.86701,-78.89042 -44.106511,0 -79.861775,35.31806 -79.861775,78.89042 0,43.56721 35.755264,78.88528 79.861775,78.88528 44.09085,-0.0465 79.82,-35.33871 79.86701,-78.88528 z m -136.910387,0 c 0,-31.12385 25.539477,-56.35104 57.043377,-56.35104 31.50913,0 57.04861,25.22719 57.04861,56.35104 0,31.11869 -25.53948,56.34588 -57.04861,56.34588 -31.48823,-0.0361 -57.006818,-25.24266 -57.043377,-56.34588 z m 0,0"
     id="path30"
     inkscape:connector-curvature="0"
     style="stroke-width:1.32883644" />
</svg>
